<svg id="Layer_1" enable-background="new 0 0 479.915 479.915" height="512" viewBox="0 0 479.915 479.915" width="512" xmlns="http://www.w3.org/2000/svg"><ellipse cx="239.956" cy="422.915" fill="#ffe773" rx="139" ry="49"/><path d="m142.499 442.266c.739 7.622-7.4 13.075-14.315 9.784-17.109-8.144-27.228-18.225-27.228-29.136 0-27.06 62.23-49 139-49 .549 0 1.097.001 1.644.003 12.459.051 13.458 18.403 1.076 19.789-57.652 6.458-102.354 26.117-100.177 48.56z" fill="#fff0a6"/><path d="m362.146 58.545c-67.51-67.51-176.96-67.51-244.47 0-59.931 59.931-67.558 154.571-17.83 223.56 32.16 44.6 67.47 88.03 106.05 129.87 18.31 19.87 49.64 19.95 67.95.08 37.5-40.67 73.15-84.16 106.5-130.46 49.48-68.69 41.66-163.19-18.2-223.05z" fill="#ff6d7a"/><circle cx="239.956" cy="183.415" fill="#cbe3fa" r="128"/><path d="m327.315 31.555c10.519 6.118 3.018 22.27-8.401 18.065-105.939-39.019-218.406 31.664-231.594 141.492-1.452 12.096-19.176 11.591-19.912-.57-2.99-49.451 15.712-97.441 50.268-131.997 58.522-58.522 145.011-64.577 209.639-26.99z" fill="#ff8c95"/><path d="m144.45 228.683c2.645 13.212-15.838 19.336-21.35 7.042-7.406-16.518-11.413-34.891-11.129-54.229 1.03-70.314 59.729-127.699 131.01-126.046 13.441.312 15.298 19.714 2.121 22.38-68.065 13.775-114.953 79.429-100.652 150.853z" fill="#eef7ff"/><g><path d="m315.956 192.097v-13.591c0-4.418-3.582-8-8-8h-17.034c-4.418 0-8 3.582-8 8s3.582 8 8 8h9.034v5.591c0 9.925-8.075 18-18 18s-18-8.075-18-18v-28.364c0-9.925 8.075-18 18-18 6.884 0 13.065 3.833 16.132 10.002 1.967 3.957 6.767 5.57 10.726 3.603 3.956-1.967 5.569-6.768 3.603-10.725-5.789-11.646-17.461-18.88-30.46-18.88-18.748 0-34 15.252-34 34v28.364c0 18.748 15.252 34 34 34s33.999-15.253 33.999-34z"/><path d="m215.956 145.915c4.418 0 8-3.582 8-8s-3.582-8-8-8h-44c-4.418 0-8 3.582-8 8v37.757c0 7.405 9.257 10.839 14.079 5.2 3.238-3.786 7.948-5.957 12.921-5.957 9.374 0 17 7.626 17 17v1c0 9.374-7.626 17-17 17-4.976 0-9.688-2.171-12.926-5.957-2.871-3.357-7.921-3.752-11.279-.879-3.357 2.872-3.751 7.922-.879 11.279 6.282 7.344 15.426 11.557 25.084 11.557 18.196 0 33-14.804 33-33 0-24.758-23.164-39.483-44-32.115v-14.885z"/><path d="m318.041 374.152c24.109-28.414 47.141-57.821 68.797-87.884 51.778-71.878 43.546-170.798-19.036-233.379-70.52-70.519-185.262-70.518-255.78 0-62.81 62.811-70.566 161.91-18.665 233.893 32.758 45.434 68.644 89.38 106.658 130.617 21.455 23.275 58.255 23.362 79.718.082 8.936-9.692 17.748-19.538 26.435-29.512 44.475 8.744 64.79 24.077 64.79 34.946 0 17.12-49.837 41-131 41s-131-23.88-131-41c0-7.184 8.488-15.277 23.288-22.205 4.002-1.873 5.727-6.635 3.854-10.637s-6.636-5.726-10.637-3.854c-26.865 12.576-32.505 26.896-32.505 36.696 0 37.023 75.738 57 147 57s147-19.977 147-57c-.002-20.89-25.488-38.713-68.917-48.763zm-50.073 32.484c-15.128 16.409-40.992 16.406-56.19-.082-37.582-40.768-73.059-84.213-105.443-129.13-47.635-66.065-40.484-155.738 17-213.222 64.278-64.278 168.871-64.281 233.151 0 57.46 57.46 64.765 146.919 17.368 212.714-32.503 45.122-68.128 88.766-105.886 129.72z"/><path d="m239.956 47.415c-74.99 0-136 61.009-136 136s61.01 136 136 136c4.418 0 8-3.582 8-8s-3.582-8-8-8c-66.168 0-120-53.832-120-120s53.832-120 120-120 120 53.832 120 120c0 48.482-28.888 91.935-73.595 110.7-4.073 1.71-5.99 6.399-4.28 10.473 1.711 4.074 6.397 5.99 10.474 4.28 50.664-21.266 83.401-70.509 83.401-125.453 0-74.991-61.009-136-136-136z"/></g></svg>